<svg version="1.1" xmlns="http://www.w3.org/2000/svg" xmlns:xlink="http://www.w3.org/1999/xlink" width="300" height="300" viewBox="607,110.8125,653.5,653.5" style="background:black"><g fill="none" fill-rule="nonzero" stroke="none" stroke-width="none" stroke-linecap="none" stroke-linejoin="miter" stroke-miterlimit="10" stroke-dasharray="none" stroke-dashoffset="0" font-family="none" font-weight="none" font-size="none" text-anchor="none" style="mix-blend-mode: normal"><g stroke="none"><path d="M660,763.8125v-600h600v600z" fill="#000000" stroke-width="1" stroke-linecap="butt" stroke-dasharray=""/><path transform="translate(659.5,163.3125) scale(1.01,1.01)" d="M0,100v-100h100v100z" fill="none" stroke-width="3" stroke-linecap="round" stroke-dasharray="4,10"/><path transform="translate(658.5,163.3125) scale(1.01,1.01)" d="M100,100v-100h100v100z" fill="#240038" stroke-width="3" stroke-linecap="round" stroke-dasharray="4,10"/><path transform="translate(657.5,163.3125) scale(1.01,1.01)" d="M200,100v-100h100v100z" fill="#670295" stroke-width="3" stroke-linecap="round" stroke-dasharray="4,10"/><path transform="translate(656.5,163.3125) scale(1.01,1.01)" d="M300,100v-100h100v100z" fill="#670295" stroke-width="3" stroke-linecap="round" stroke-dasharray="4,10"/><path transform="translate(655.5,163.3125) scale(1.01,1.01)" d="M400,100v-100h100v100z" fill="#670295" stroke-width="3" stroke-linecap="round" stroke-dasharray="4,10"/><path transform="translate(654.5,163.3125) scale(1.01,1.01)" d="M500,100v-100h100v100z" fill="#440069" stroke-width="3" stroke-linecap="round" stroke-dasharray="4,10"/><path transform="translate(659.5,162.3125) scale(1.01,1.01)" d="M0,200v-100h100v100z" fill="#240038" stroke-width="3" stroke-linecap="round" stroke-dasharray="4,10"/><path transform="translate(658.5,162.3125) scale(1.01,1.01)" d="M100,200v-100h100v100z" fill="#b239ff" stroke-width="3" stroke-linecap="round" stroke-dasharray="4,10"/><path transform="translate(657.5,162.3125) scale(1.01,1.01)" d="M200,200v-100h100v100z" fill="#b239ff" stroke-width="3" stroke-linecap="round" stroke-dasharray="4,10"/><path transform="translate(656.5,162.3125) scale(1.01,1.01)" d="M300,200v-100h100v100z" fill="#b239ff" stroke-width="3" stroke-linecap="round" stroke-dasharray="4,10"/><path transform="translate(655.5,162.3125) scale(1.01,1.01)" d="M400,200v-100h100v100z" fill="#440069" stroke-width="3" stroke-linecap="round" stroke-dasharray="4,10"/><path transform="translate(654.5,162.3125) scale(1.01,1.01)" d="M500,200v-100h100v100z" fill="none" stroke-width="3" stroke-linecap="round" stroke-dasharray="4,10"/><path transform="translate(659.5,161.3125) scale(1.01,1.01)" d="M0,300v-100h100v100z" fill="#670295" stroke-width="3" stroke-linecap="round" stroke-dasharray="4,10"/><path transform="translate(658.5,161.3125) scale(1.01,1.01)" d="M100,300v-100h100v100z" fill="#b239ff" stroke-width="3" stroke-linecap="round" stroke-dasharray="4,10"/><path transform="translate(657.5,161.3125) scale(1.01,1.01)" d="M200,300v-100h100v100z" fill="#b239ff" stroke-width="3" stroke-linecap="round" stroke-dasharray="4,10"/><path transform="translate(656.5,161.3125) scale(1.01,1.01)" d="M300,300v-100h100v100z" fill="#670295" stroke-width="3" stroke-linecap="round" stroke-dasharray="4,10"/><path transform="translate(655.5,161.3125) scale(1.01,1.01)" d="M400,300v-100h100v100z" fill="none" stroke-width="3" stroke-linecap="round" stroke-dasharray="4,10"/><path transform="translate(654.5,161.3125) scale(1.01,1.01)" d="M500,300v-100h100v100z" fill="none" stroke-width="3" stroke-linecap="round" stroke-dasharray="4,10"/><path transform="translate(659.5,160.3125) scale(1.01,1.01)" d="M0,400v-100h100v100z" fill="#440069" stroke-width="3" stroke-linecap="round" stroke-dasharray="4,10"/><path transform="translate(658.5,160.3125) scale(1.01,1.01)" d="M100,400v-100h100v100z" fill="#670295" stroke-width="3" stroke-linecap="round" stroke-dasharray="4,10"/><path transform="translate(657.5,160.3125) scale(1.01,1.01)" d="M200,400v-100h100v100z" fill="#670295" stroke-width="3" stroke-linecap="round" stroke-dasharray="4,10"/><path transform="translate(656.5,160.3125) scale(1.01,1.01)" d="M300,400v-100h100v100z" fill="#440069" stroke-width="3" stroke-linecap="round" stroke-dasharray="4,10"/><path transform="translate(655.5,160.3125) scale(1.01,1.01)" d="M400,400v-100h100v100z" fill="none" stroke-width="3" stroke-linecap="round" stroke-dasharray="4,10"/><path transform="translate(654.5,160.3125) scale(1.01,1.01)" d="M500,400v-100h100v100z" fill="none" stroke-width="3" stroke-linecap="round" stroke-dasharray="4,10"/><path transform="translate(659.5,159.3125) scale(1.01,1.01)" d="M0,500v-100h100v100z" fill="none" stroke-width="3" stroke-linecap="round" stroke-dasharray="4,10"/><path transform="translate(658.5,159.3125) scale(1.01,1.01)" d="M100,500v-100h100v100z" fill="#240038" stroke-width="3" stroke-linecap="round" stroke-dasharray="4,10"/><path transform="translate(657.5,159.3125) scale(1.01,1.01)" d="M200,500v-100h100v100z" fill="#440069" stroke-width="3" stroke-linecap="round" stroke-dasharray="4,10"/><path transform="translate(656.5,159.3125) scale(1.01,1.01)" d="M300,500v-100h100v100z" fill="#240038" stroke-width="3" stroke-linecap="round" stroke-dasharray="4,10"/><path transform="translate(655.5,159.3125) scale(1.01,1.01)" d="M400,500v-100h100v100z" fill="none" stroke-width="3" stroke-linecap="round" stroke-dasharray="4,10"/><path transform="translate(654.5,159.3125) scale(1.01,1.01)" d="M500,500v-100h100v100z" fill="none" stroke-width="3" stroke-linecap="round" stroke-dasharray="4,10"/><path transform="translate(659.5,158.3125) scale(1.01,1.01)" d="M0,600v-100h100v100z" fill="none" stroke-width="3" stroke-linecap="round" stroke-dasharray="4,10"/><path transform="translate(658.5,158.3125) scale(1.01,1.01)" d="M100,600v-100h100v100z" fill="none" stroke-width="3" stroke-linecap="round" stroke-dasharray="4,10"/><path transform="translate(657.5,158.3125) scale(1.01,1.01)" d="M200,600v-100h100v100z" fill="#240038" stroke-width="3" stroke-linecap="round" stroke-dasharray="4,10"/><path transform="translate(656.5,158.3125) scale(1.01,1.01)" d="M300,600v-100h100v100z" fill="#440069" stroke-width="3" stroke-linecap="round" stroke-dasharray="4,10"/><path transform="translate(655.5,158.3125) scale(1.01,1.01)" d="M400,600v-100h100v100z" fill="#240038" stroke-width="3" stroke-linecap="round" stroke-dasharray="4,10"/><path transform="translate(654.5,158.3125) scale(1.01,1.01)" d="M500,600v-100h100v100z" fill="none" stroke-width="3" stroke-linecap="round" stroke-dasharray="4,10"/></g><path d="M1060,563.8125v-100h100v100z" fill="none" stroke="none" stroke-width="3" stroke-linecap="round" stroke-dasharray="4,10"/><g stroke-linecap="butt" stroke-dasharray=""><path d="M610,713.8125v-600h600v600z" fill="none" stroke="#ffffff" stroke-width="6"/><g fill="#ffffff" stroke="none" stroke-width="1"><path d="M1142.7,688.8125h-23.4v-84.6h-42.3v-23.4h108v23.4h-42.3z"/><path d="M1045.8,688.8125h-63.6c-6.1,0 -11.32333,-2.17333 -15.67,-6.52c-4.35333,-4.35333 -6.53,-9.58 -6.53,-15.68v0v-10.05h23.25v3.9c0,3.3 0,4.95 0,4.95c0,0 1.65,0 4.95,0v0h51.3c3.3,0 4.95,0 4.95,0c0,0 0,-1.65 0,-4.95v0v-9c0,-3.3 0,-4.95 0,-4.95c0,0 -1.65,0 -4.95,0v0h-57.3c-6.1,0 -11.32333,-2.17333 -15.67,-6.52c-4.35333,-4.35333 -6.53,-9.58 -6.53,-15.68v0v-21.3c0,-6.1 2.17667,-11.32333 6.53,-15.67c4.34667,-4.35333 9.57,-6.53 15.67,-6.53v0h63.6c6,0 11.2,2.17667 15.6,6.53c4.4,4.34667 6.6,9.57 6.6,15.67v0v10.05h-23.55v-3.9c0,-3.3 0,-4.95 0,-4.95c0,0 -1.65,0 -4.95,0v0h-51.3c-3.3,0 -4.95,0 -4.95,0c0,0 0,1.65 0,4.95v0v9c0,3.3 0,4.95 0,4.95c0,0 1.65,0 4.95,0v0h57.6c6,0 11.2,2.17667 15.6,6.53c4.4,4.34667 6.6,9.57 6.6,15.67v0v21.3c0,6.1 -2.2,11.32667 -6.6,15.68c-4.4,4.34667 -9.6,6.52 -15.6,6.52z"/><path d="M908.475,688.8125h-22.95v-108h22.95z"/><path d="M834,688.8125h-108v-108.15h23.25v84.75h84.75z"/><path d="M1102.275,571.8125h-23.4v-108h23.4v42.3h21.15l35.4,-42.3h24.3v8.1l-38.55,45.9l38.55,45.9v8.1h-24.3l-35.4,-42.3h-21.15z"/><path d="M983.25,571.8125h-23.25v-108h24l60.45,72v-72h23.55v108h-24l-60.75,-72.3z"/><path d="M908.475,571.8125h-22.95v-108h22.95z"/><path d="M834,571.8125h-108v-108.15h23.25v84.75h84.75z"/><path d="M1162.275,454.8125h-62.4c-6,0 -11.15,-2.15 -15.45,-6.45c-4.3,-4.3 -6.45,-9.4 -6.45,-15.3v0v-8.4h22.95v2.25c0,3.3 0,4.95 0,4.95c0,0 1.65,0 4.95,0v0h50.25c3.3,0 4.95,0 4.95,0c0,0 0,-1.65 0,-4.95v0v-10.05c0,-3.3 0,-4.95 0,-4.95c0,0 -1.65,0 -4.95,0v0h-60.45v-22.95h56.4c3.3,0 4.95,0 4.95,0c0,0 0,-1.65 0,-4.95v0v-9.3c0,-3.3 0,-4.95 0,-4.95c0,0 -1.65,0 -4.95,0v0h-46.2c-3.3,0 -4.95,0 -4.95,0c0,0 0,1.65 0,4.95v0v3.45h-22.95v-9.6c0,-6 2.15,-11.12667 6.45,-15.38c4.3,-4.24667 9.45,-6.37 15.45,-6.37v0h58.35c6,0 11.12667,2.12333 15.38,6.37c4.24667,4.25333 6.37,9.38 6.37,15.38v0v21.6c0,1.1 -0.07667,2.27333 -0.23,3.52c-0.14667,1.25333 -0.37,2.38 -0.67,3.38v0c1.5,1.8 2.7,3.87667 3.6,6.23c0.9,2.34667 1.35,4.82 1.35,7.42v0v22.35c0,5.9 -2.12333,11 -6.37,15.3c-4.25333,4.3 -9.38,6.45 -15.38,6.45z"/><path d="M1067.85,454.8125h-85.5c-6.1,0 -11.32667,-2.17333 -15.68,-6.52c-4.34667,-4.35333 -6.52,-9.58 -6.52,-15.68v0v-63.6c0,-6.1 2.17333,-11.32333 6.52,-15.67c4.35333,-4.35333 9.58,-6.53 15.68,-6.53v0h85.5v23.4h-79.5c-3.3,0 -4.95,0 -4.95,0c0,0 0,1.65 0,4.95v0v51.3c0,3.3 0,4.95 0,4.95c0,0 1.65,0 4.95,0v0h79.5z"/><path d="M866.25,454.8125h-23.25v-107.85h85.65c6.1,0 11.35,2.2 15.75,6.6c4.4,4.4 6.6,9.6 6.6,15.6v0v27.9c0,6 -2.2,11.2 -6.6,15.6c-4.4,4.4 -9.65,6.6 -15.75,6.6v0h-1.05l23.4,27.6v7.95h-24l-29.85,-35.55l-30.9,0.15zM871.2,395.8625v0h51.3c3.3,0 4.95,0 4.95,0c0,0 0,-1.65 0,-4.95v0v-15.75c0,-3.3 0,-4.95 0,-4.95c0,0 -1.65,0 -4.95,0v0h-51.3c-3.3,0 -4.95,0 -4.95,0c0,0 0,1.65 0,4.95v0v15.75c0,3.3 0,4.95 0,4.95c0,0 1.65,0 4.95,0z"/></g></g></g></svg>
